<?xml version="1.0" encoding="utf-8"?>
<!-- Generator: Adobe Illustrator 26.2.1, SVG Export Plug-In . SVG Version: 6.00 Build 0)  -->
<svg version="1.1" id="Layer_1" xmlns="http://www.w3.org/2000/svg" xmlns:xlink="http://www.w3.org/1999/xlink" x="0px" y="0px"
	 viewBox="0 0 432 395" style="enable-background:new 0 0 432 395;" xml:space="preserve">
<path d="M0,49.4C0,22.1,21.5,0,48,0h120v98.8c0,13.7,10.7,24.7,24,24.7h96v29.8c-55.4,16.1-96,68.5-96,130.7
	c0,45.6,21.8,85.9,55.3,110.6c-2.3,0.3-4.8,0.5-7.3,0.5H48c-26.5,0-48-22.1-48-49.4V49.4z M192,98.8V0l96,98.8H192z M216,283.9
	c0-61.3,48.4-111.1,108-111.1s108,49.8,108,111.1S383.6,395,324,395S216,345.2,216,283.9z M336,233.8c0-6.1-5.4-12.3-12-12.3
	s-12,6.2-12,12.3v37h-36c-6.6,0-12,6.2-12,12.3c0,7.5,5.4,12.3,12,12.3h36v37c0,7.5,5.4,12.3,12,12.3s12-4.9,12-12.3v-37h36
	c6.6,0,12-4.9,12-12.3c0-6.1-5.4-12.3-12-12.3h-36V233.8z"/>
</svg>
