<?xml version="1.0" encoding="utf-8"?>
<!-- Generator: Adobe Illustrator 26.2.1, SVG Export Plug-In . SVG Version: 6.00 Build 0)  -->
<svg version="1.1" id="Layer_1" xmlns="http://www.w3.org/2000/svg" xmlns:xlink="http://www.w3.org/1999/xlink" x="0px" y="0px"
	 viewBox="0 0 432 395" style="enable-background:new 0 0 432 395;" xml:space="preserve">
<path d="M432,116.9c0,5.5-1.5,11.1-4.7,15.7l-33.7,49.1c-4.3,6.2-10.5,9.4-16.9,9.4c-4.7,0-9.5-1.8-13.5-5.5L324,149.2v207.6
	c0,21.1-14.5,38.2-32.4,38.2H140.4c-17.9,0-32.4-17.1-32.4-38.2V149.2l-39.8,36.5c-3.4,3.7-8.2,4.8-12.9,4.8
	c-6.3,0-12.6-3.2-16.9-9.4L4.7,132.6C1.5,128,0,122.4,0,116.9c0-7.4,2.8-14.7,8.1-19.7l91.1-84.9C107.9,4.4,118.6,0,129,0h23.3
	c5.2,36.1,31.7,63.7,63.7,63.7S274.5,36.1,279.7,0h22.7c11,0,21.7,4.4,30.4,12.4l91.1,84.9C429.2,102.3,432,109.6,432,116.9z"/>
</svg>
