<svg id="Layer_1" data-name="Layer 1" xmlns="http://www.w3.org/2000/svg" viewBox="0 0 432 395"><path d="M432,116.91a27.78,27.78,0,0,1-4.73,15.69l-33.73,49.08c-4.26,6.2-10.54,9.43-16.88,9.43a19.7,19.7,0,0,1-13.48-5.51L324,149.16V356.77c0,21.12-14.51,38.23-32.4,38.23H140.4c-17.89,0-32.4-17.12-32.4-38.23V149.16L68.24,185.63c-3.41,3.67-8.17,4.78-12.9,4.78-6.34,0-12.62-3.23-16.89-9.43L4.73,132.6A27.78,27.78,0,0,1,0,116.91,26.84,26.84,0,0,1,8.11,97.25L99.23,12.36C107.87,4.37,118.6,0,129,0h23.29c5.2,36.12,31.66,63.71,63.72,63.71S274.54,36.12,279.71,0h22.68a44.52,44.52,0,0,1,30.37,12.4l91.13,84.89A26.82,26.82,0,0,1,432,116.91Z"/></svg>