<svg id="Layer_1" data-name="Layer 1" xmlns="http://www.w3.org/2000/svg" viewBox="0 0 432 530"><path d="M130.37,18.31C135.58,7.09,146.28,0,158,0h116.1c11.67,0,22.37,7.09,27.58,18.31l6.94,14.81h92.57C418.21,33.12,432,48,432,66.25s-13.79,33.13-30.86,33.13H30.86C13.82,99.38,0,84.54,0,66.25S13.82,33.12,30.86,33.12h92.57ZM30,132.5H401.14V463.75c0,36.54-27.67,66.25-61.71,66.25H91.7C58.48,530,30,500.29,30,463.75Zm77.14,82.81V447.19c0,9.11,7.81,16.56,15.43,16.56,9.35,0,15.43-7.45,15.43-16.56V215.31c0-9.11-6.08-16.56-15.43-16.56C114.94,198.75,107.13,206.2,107.13,215.31Zm92.57,0V447.19c0,9.11,7.81,16.56,15.43,16.56a16.23,16.23,0,0,0,16.3-16.56V215.31a16.23,16.23,0,0,0-16.3-16.56C207.51,198.75,199.7,206.2,199.7,215.31Zm93.44,0V447.19c0,9.11,6.95,16.56,15.43,16.56S324,456.3,324,447.19V215.31c0-9.11-6.94-16.56-15.43-16.56S293.14,206.2,293.14,215.31Z"/></svg>