<?xml version="1.0" encoding="utf-8"?>
<!-- Generator: Adobe Illustrator 26.2.1, SVG Export Plug-In . SVG Version: 6.00 Build 0)  -->
<svg version="1.1" id="Layer_1" xmlns="http://www.w3.org/2000/svg" xmlns:xlink="http://www.w3.org/1999/xlink" x="0px" y="0px"
	 viewBox="0 0 600 600" style="enable-background:new 0 0 600 600;" xml:space="preserve">
<path d="M221.8,44.3C227,33.1,237.7,26,249.4,26h116.1c11.7,0,22.4,7.1,27.6,18.3l6.9,14.8h92.6c17.1,0,30.9,14.8,30.9,33.1
	s-13.8,33.1-30.9,33.1H122.3c-17,0-30.9-14.8-30.9-33.1s13.8-33.1,30.9-33.1h92.6L221.8,44.3z M121.4,158.5h371.2v331.2
	c0,36.5-27.7,66.2-61.7,66.2H183.1c-33.2,0-61.7-29.7-61.7-66.2V158.5z M198.6,241.3v231.9c0,9.1,7.8,16.6,15.4,16.6
	c9.4,0,15.4-7.5,15.4-16.6V241.3c0-9.1-6.1-16.6-15.4-16.6C206.4,224.8,198.6,232.2,198.6,241.3z M291.1,241.3v231.9
	c0,9.1,7.8,16.6,15.4,16.6c9.4,0,16.3-7.5,16.3-16.6V241.3c0-9.1-6.9-16.6-16.3-16.6C298.9,224.8,291.1,232.2,291.1,241.3z
	 M384.6,241.3v231.9c0,9.1,6.9,16.6,15.4,16.6s15.4-7.5,15.4-16.6V241.3c0-9.1-6.9-16.6-15.4-16.6S384.6,232.2,384.6,241.3z"/>
</svg>
