<svg id="Layer_1" data-name="Layer 1" xmlns="http://www.w3.org/2000/svg" viewBox="0 0 432 395"><path d="M0,49.38C0,22.1,21.49,0,48,0H168V98.75c0,13.66,10.73,24.69,24,24.69h96v29.78c-55.42,16.12-96,68.5-96,130.69a137,137,0,0,0,55.28,110.55A55.65,55.65,0,0,1,240,395H48c-26.51,0-48-22.14-48-49.38ZM192,98.75V0l96,98.75Zm24,185.16c0-61.34,48.38-111.1,108-111.1s108,49.76,108,111.1S383.62,395,324,395,216,345.24,216,283.91Zm120-50.07c0-6.1-5.4-12.35-12-12.35s-12,6.25-12,12.35v37H276c-6.6,0-12,6.25-12,12.34,0,7.49,5.4,12.35,12,12.35h36v37c0,7.48,5.4,12.34,12,12.34s12-4.86,12-12.34v-37h36c6.6,0,12-4.86,12-12.35,0-6.09-5.4-12.34-12-12.34H336Z"/></svg>